<?xml version="1.0" encoding="utf-8"?>
<!-- Generator: Adobe Illustrator 15.1.0, SVG Export Plug-In . SVG Version: 6.00 Build 0)  -->
<!DOCTYPE svg PUBLIC "-//W3C//DTD SVG 1.0//EN" "http://www.w3.org/TR/2001/REC-SVG-20010904/DTD/svg10.dtd">
<svg version="1.0" id="Layer_1" xmlns="http://www.w3.org/2000/svg" xmlns:xlink="http://www.w3.org/1999/xlink" x="0px" y="0px"
	 width="525px" height="310px" viewBox="0 0 525 310" enable-background="new 0 0 525 310" xml:space="preserve">
<g id="Page-1">
	<g id="Group-32" transform="translate(-417.000000, -98.000000)">
		<g id="Group-31" transform="translate(417.000000, 98.000000)">
			<path id="Shape" fill="#F5A623" d="M121.329,149.671c9.166-7.572,28.02-34.635-1.441-29.867
				c-12.831,1.963-31.686,14.443-35.483,28.745c-1.981-3.824-4.167-7.523-6.547-11.077c-3.535-4.909-7.594-1.123-3.666,3.926
				c11.129,14.443,18.855,31.83,18.855,49.356c0.917-8.692-0.524-19.349-3.928-29.726c1.702,0.562,3.535,0.841,5.237,0.841
				c6.023,9.815,15.188,18.229,25.532,22.154c9.428,3.787,21.998,1.544,16.892-13.6C134.029,162.15,127.614,154.859,121.329,149.671
				z M122.638,123.31c16.367-1.823-1.179,18.509-6.939,22.295c-5.37-3.506-12.047-6.59-18.594-5.749
				C101.819,133.826,113.211,124.432,122.638,123.31z M96.975,144.343c4.451-0.421,9.296,2.103,12.962,4.626
				c-3.536,1.823-7.464,2.944-11.523,3.225C92.392,152.195,91.213,144.904,96.975,144.343z M119.627,176.032
				c-7.726-2.242-14.927-8.413-20.165-14.723c4.32-0.841,8.511-2.523,12.438-4.908c1.441-0.7,2.881-1.682,4.19-2.663
				c4.583,4.207,9.296,9.814,11.129,16.126C129.054,176.733,124.078,177.294,119.627,176.032z"/>
			<g id="flutterwave" transform="translate(296.324896, 38.912798)">
				<path id="Shape_1_" d="M-112.285,93.62h-22.41c-0.743,0-1.336,0.634-1.336,1.428h-0.149v35.069c0,0.793,0.594,1.428,1.336,1.428
					c0.743,0,1.336-0.635,1.484-1.428v-15.868h18.998c0.742,0,1.187-0.636,1.187-1.27c0-0.794-0.594-1.27-1.187-1.27h-19.146V96.318
					h21.223c0.743,0,1.188-0.635,1.188-1.27C-111.096,94.626-111.493,94.149-112.285,93.62z M-102.044,91.716h-0.147
					c-0.595,0-1.039,0.634-1.039,1.27v36.974c0,0.794,0.594,1.269,1.187,1.269c0.743,0,1.188-0.636,1.188-1.269V93.144
					C-100.856,92.35-101.301,91.716-102.044,91.716z M-69.689,105.045c0-0.792-0.594-1.27-1.188-1.27
					c-0.741,0-1.187,0.636-1.187,1.27v15.393c0,5.236-4.008,9.36-8.905,9.203c-5.195,0-8.163-3.648-8.163-9.362v-15.234
					c0-0.792-0.593-1.27-1.187-1.27s-1.187,0.636-1.187,1.27v15.711c0,6.505,3.858,11.265,10.24,11.265
					c3.86,0.16,7.57-2.062,9.351-5.712v3.968c0,0.792,0.594,1.269,1.187,1.269c0.743,0,1.188-0.635,1.188-1.269h-0.149V105.045z
					 M-48.316,106.315c0.593,0,1.187-0.476,1.187-1.11c0-0.636-0.594-1.271-1.187-1.271h-8.164v-7.616
					c0-0.635-0.594-1.27-1.188-1.27h-0.147c-0.593,0-1.04,0.635-1.04,1.27v7.616h-2.82c-0.594,0-1.187,0.477-1.187,1.11
					c0,0.636,0.593,1.27,1.187,1.27h2.82v17.933c0,5.077,3.265,7.457,7.125,7.457c1.187,0,2.523-0.159,3.71-0.636
					c0.445-0.158,0.742-0.635,0.742-1.109c0-0.635-0.445-1.111-1.038-1.111c-0.891,0.317-1.93,0.477-2.969,0.477
					c-3.116,0-5.194-1.429-5.194-5.396v-17.614H-48.316z M-28.13,106.315c0.594,0,1.188-0.476,1.188-1.11
					c0-0.636-0.594-1.271-1.188-1.271h-8.165v-7.616c0-0.635-0.594-1.27-1.188-1.27h-0.148c-0.593,0-1.039,0.635-1.039,1.27v7.616
					h-2.82c-0.594,0-1.188,0.477-1.188,1.11c0,0.636,0.594,1.27,1.188,1.27h2.82v17.933c0,5.077,3.265,7.457,7.124,7.457
					c1.188,0,2.523-0.159,3.711-0.636c0.443-0.158,0.742-0.635,0.742-1.109c0-0.635-0.443-1.111-1.037-1.111
					c-0.893,0.317-1.932,0.477-2.971,0.477c-3.116,0-5.194-1.429-5.194-5.396v-17.614H-28.13z M-10.321,103.141
					c-6.977,0-12.172,6.348-12.172,14.44v0.159c0,8.728,5.789,14.44,12.617,14.44c3.711,0.158,7.422-1.428,9.943-4.444
					c0.297-0.315,0.445-0.634,0.445-0.951c0-0.635-0.594-1.27-1.188-1.27c-0.297,0-0.594,0.158-0.742,0.316
					c-2.078,2.38-5.193,3.809-8.311,3.809c-5.047,0-9.648-3.967-10.092-10.79H0.365c0.594,0,1.188-0.634,1.188-1.27
					C1.552,109.489-3.048,103.141-10.321,103.141z M-19.969,116.312c0.447-6.03,4.453-10.631,9.5-10.631
					c5.787,0,8.904,5.077,9.201,10.631H-19.969z M21.441,103.617c-4.602,0.318-8.607,3.65-10.242,8.253v-6.665
					c0-0.636-0.594-1.271-1.188-1.271c-0.74,0-1.188,0.477-1.336,1.271v25.387c0,0.636,0.596,1.271,1.189,1.271
					c0.74,0,1.188-0.476,1.334-1.271v-10.154c0-8.886,4.752-13.171,10.242-13.806h0.146c0.742,0,1.188-0.793,1.188-1.427
					C22.775,104.252,22.181,103.617,21.441,103.617z"/>
				<path id="wave" stroke="#000000" stroke-width="0.75" d="M65.261,102.154c-1.785,0-3.271,1.267-3.719,3.165l-4.309,14.715
					l-4.311-14.715c-0.447-1.898-2.082-3.323-4.014-3.323h-0.447c-1.932,0-3.568,1.267-4.014,3.323l-4.311,14.559l-4.162-14.717
					c-0.447-1.74-1.932-3.165-3.715-3.165h-0.148c-1.934,0-3.42,1.742-3.42,3.798c0,0.633,0.148,1.266,0.297,1.898l6.688,20.413
					c0.447,2.057,2.082,3.481,4.162,3.64h0.299c1.932,0,3.568-1.425,4.162-3.481l4.313-14.557l4.311,14.557
					c0.443,2.057,2.229,3.481,4.162,3.481h0.295c2.082,0,3.867-1.425,4.311-3.64l6.691-20.57c0.148-0.475,0.297-1.108,0.297-1.583
					v-0.158C68.679,103.737,67.193,102.154,65.261,102.154z M84.286,102.154c-2.973-0.158-5.797,0.476-8.621,1.425
					c-1.189,0.475-1.932,1.74-1.932,3.165c0,1.898,1.486,3.324,3.268,3.165c0.299,0,0.746,0,1.041-0.159
					c1.787-0.633,3.568-0.791,5.352-0.791c3.867,0,5.799,1.74,5.799,5.221v0.475c-2.082-0.791-4.311-1.108-6.541-1.108
					c-6.393,0-10.852,3.008-10.852,9.338c0,5.695,4.311,8.86,9.217,8.86c3.123,0.159,6.094-1.267,8.176-3.64
					c0.15,2.057,1.783,3.481,3.715,3.481c2.082,0,3.717-1.741,3.717-3.956v-12.976c0.148-3.323-0.893-6.646-2.975-9.178
					C91.421,103.42,88.447,102.154,84.286,102.154z M89.343,120.984c0,3.165-2.529,5.063-6.098,4.906
					c-2.377,0-4.162-1.267-4.162-3.481v-0.158c0-2.373,2.082-3.956,5.352-3.956c1.637,0,3.42,0.475,4.908,1.108V120.984z
					 M123.085,101.995c-1.637,0-3.123,1.108-3.57,2.848l-5.945,16.774l-5.797-16.616c-0.445-1.74-1.93-3.006-3.717-3.006
					c-1.932,0-3.566,1.583-3.715,3.798c0,0.633,0.148,1.266,0.445,1.898l8.322,20.413c0.598,2.057,2.23,3.481,4.313,3.64h0.447
					c1.932-0.158,3.715-1.425,4.459-3.481l8.027-20.412c0.295-0.633,0.445-1.266,0.445-1.899v-0.158
					C126.8,103.737,125.165,101.995,123.085,101.995z M143.15,101.837c-7.877,0-13.377,6.804-13.377,15.034v1.265
					c0.297,7.91,6.689,14.083,14.123,13.608c3.418,0,6.688-1.107,9.363-3.481c0.744-0.633,1.043-1.425,1.043-2.373v-0.158
					c0-1.741-1.34-3.165-2.975-3.165c-0.596,0-1.338,0.159-1.785,0.634c-1.635,1.265-3.566,2.056-5.498,1.898
					c-3.271,0.157-6.094-2.215-6.541-5.696h15.311c1.932-0.159,3.418-1.9,3.27-3.957v-0.633
					C156.083,107.692,150.286,101.68,143.15,101.837z M137.353,114.655c0.598-3.798,2.678-6.171,5.797-6.171
					c3.125,0,5.203,2.533,5.65,6.171H137.353z"/>
			</g>
		</g>
	</g>
</g>
</svg>
