<svg width="731" height="719" viewBox="0 0 731 719" fill="none"
    xmlns="http://www.w3.org/2000/svg">
    <path d="M620.67 278.16C571.14 244.31 510.01 221.46 443.59 211.4C435.98 209.64 428.29 208.12 420.5 206.91L421.38 191.51C421.38 191.51 505.77 223.36 506.8 182.9C506.8 182.9 553.26 171.79 534.11 88.42L520.42 86.42C520.42 86.42 536.12 29.35 500.72 0.0299988C500.72 0.0299988 484.02 5.59 483.52 22.77L499.18 38.44C499.793 38.7941 500.302 39.3047 500.653 39.9196C501.005 40.5346 501.186 41.2318 501.18 41.94C501.175 43.0204 500.741 44.0545 499.974 44.8156C499.208 45.5767 498.17 46.0027 497.09 46C497.02 46 497 46 496.92 46H496.65C495.8 45.9896 494.974 45.7211 494.28 45.23C494.229 45.1749 494.168 45.1306 494.1 45.1C493.39 44.94 492.59 44.75 491.65 44.49C478.49 40.41 475.44 40.92 475.44 40.92C475.44 40.92 468.89 52 478.98 66.19C489.07 80.38 509.31 140.99 480.98 161.19C452.65 181.39 439.19 176.96 431.68 172.85C431.358 172.666 431.047 172.462 430.75 172.24C430.51 172.24 430.23 172.11 429.95 172.05C428.705 171.597 427.66 170.719 426.999 169.571C426.338 168.424 426.102 167.079 426.334 165.775C426.565 164.471 427.249 163.29 428.266 162.441C429.282 161.591 430.565 161.127 431.89 161.13C431.94 161.13 431.94 161.13 432.05 161.13C432.16 161.13 432.22 161.13 432.32 161.13C433.509 161.144 434.665 161.524 435.63 162.22L437.14 162.93C449.79 169.76 460.05 168.42 463.14 146.93C466.23 125.44 484.32 128.46 484.32 128.46C484.32 128.46 488.1 67.29 453.89 69L452.67 69.74C452.67 69.74 461.29 93.51 413.77 120.26C366.25 147.01 377.41 163.26 369.29 183.44L364.29 201.06L359.29 183.44C351.21 163.23 362.29 147.08 314.82 120.26C267.35 93.44 275.89 69.72 275.89 69.72L274.69 68.98C240.52 67.29 244.28 128.43 244.28 128.43C244.28 128.43 262.37 125.35 265.46 146.9C268.55 168.45 278.8 169.76 291.46 162.9C292.02 162.64 292.46 162.41 293 162.19C293.835 161.577 294.823 161.207 295.855 161.123C296.887 161.039 297.923 161.243 298.846 161.713C299.769 162.183 300.543 162.9 301.082 163.784C301.622 164.668 301.905 165.684 301.9 166.72C301.904 167.881 301.548 169.015 300.88 169.964C300.211 170.914 299.264 171.632 298.17 172.02C297.779 172.315 297.368 172.583 296.94 172.82C289.44 176.93 275.94 181.39 247.62 161.16C219.3 140.93 239.52 80.3 249.62 66.16C259.72 52.02 253.16 40.88 253.16 40.88C253.16 40.88 250.16 40.37 237 44.45C235.8 44.81 234.81 45 233.89 45.19C233.201 45.675 232.383 45.9431 231.54 45.96C230.641 45.9734 229.764 45.6889 229.044 45.1511C228.324 44.6132 227.802 43.8522 227.56 42.9867C227.318 42.1212 227.369 41.2 227.706 40.3666C228.042 39.5333 228.645 38.8348 229.42 38.38L245.07 22.71C244.57 5.56 227.89 0 227.89 0C192.51 29.32 208.18 86.39 208.18 86.39L194.53 88.39C175.33 171.76 221.82 182.87 221.82 182.87C222.82 223.33 307.23 191.48 307.23 191.48L308.23 208.62C233.67 216.75 164.74 240.71 110 278.13C39.06 326.63 0 391.89 0 461.91C0 531.93 39.07 597.19 110 645.68C178.5 692.5 269.18 718.29 365.35 718.29C461.52 718.29 552.21 692.5 620.7 645.68C691.64 597.19 730.7 531.93 730.7 461.91C730.7 391.89 691.61 326.66 620.67 278.16ZM610.37 619.68C545.22 664.21 458.19 688.73 365.32 688.73C272.45 688.73 185.42 664.21 120.32 619.68C57.75 576.91 23.32 520.89 23.32 461.94C23.32 402.99 57.78 346.94 120.32 304.2C185.46 259.67 272.49 235.14 365.32 235.14C458.15 235.14 545.22 259.67 610.37 304.2C672.93 346.97 707.37 402.99 707.37 461.94C707.37 520.89 672.89 576.91 610.37 619.68Z" fill="url(#paint0_linear)"/>
    <path d="M276.7 411.13V410.49C276.712 401.884 275.025 393.36 271.736 385.407C268.447 377.454 263.621 370.229 257.534 364.145C251.447 358.06 244.22 353.238 236.265 349.952C228.311 346.667 219.786 344.984 211.18 345H132.25V373.44H211.18C231.64 373.44 248.57 390.06 248.57 410.51V411.15C248.57 431.28 231.64 447.9 211.18 447.9H132.25V578.9H160.69V476.32H211.18C219.763 476.345 228.268 474.678 236.207 471.415C244.146 468.152 251.364 463.356 257.449 457.302C263.533 451.248 268.366 444.054 271.669 436.132C274.972 428.209 276.682 419.713 276.7 411.13Z" fill="url(#paint1_linear)"/>
    <path d="M348.33 344.66L332.67 378.85L239.35 578.9H270.99L348.33 412.73L364.3 378.85L348.33 344.66Z" fill="url(#paint2_linear)"/>
    <path d="M598.39 344.98H565.15L497.4 462.26L445.01 553.13L379.96 413.05L364.3 446.92L425.34 578.9H430.16L429.97 579.22H463.21L499.64 515.62L514.02 491.34L564.83 579.22H597.75L530.64 462.58V462.26L598.39 344.98Z" fill="url(#paint3_linear)"/>
    <path d="M497.4 405.06L462.57 344.98H429.66L480.79 433.5L497.4 405.06Z" fill="url(#paint4_linear)"/>
    <defs>
        <linearGradient id="paint0_linear" x1="564415" y1="23703.6" x2="564415" y2="2.09263e+06" gradientUnits="userSpaceOnUse">
            <stop offset="0.01" stop-color="#A88006"/>
            <stop offset="0.46" stop-color="#FFE87F"/>
            <stop offset="0.55" stop-color="#FFD744"/>
            <stop offset="0.56" stop-color="#FFD63F"/>
            <stop offset="0.95" stop-color="#A98207"/>
            <stop offset="1" stop-color="#9F7800"/>
        </linearGradient>
        <linearGradient id="paint1_linear" x1="88475" y1="88754.6" x2="88475" y2="308151" gradientUnits="userSpaceOnUse">
            <stop offset="0.01" stop-color="#A88006"/>
            <stop offset="0.46" stop-color="#FFE87F"/>
            <stop offset="0.55" stop-color="#FFD744"/>
            <stop offset="0.56" stop-color="#FFD63F"/>
            <stop offset="0.95" stop-color="#A98207"/>
            <stop offset="1" stop-color="#9F7800"/>
        </linearGradient>
        <linearGradient id="paint2_linear" x1="88671.5" y1="91632.7" x2="88671.5" y2="311647" gradientUnits="userSpaceOnUse">
            <stop offset="0.01" stop-color="#A88006"/>
            <stop offset="0.46" stop-color="#FFE87F"/>
            <stop offset="0.55" stop-color="#FFD744"/>
            <stop offset="0.56" stop-color="#FFD63F"/>
            <stop offset="0.95" stop-color="#A98207"/>
            <stop offset="1" stop-color="#9F7800"/>
        </linearGradient>
        <linearGradient id="paint3_linear" x1="208061" y1="91708" x2="208061" y2="311723" gradientUnits="userSpaceOnUse">
            <stop offset="0.01" stop-color="#A88006"/>
            <stop offset="0.46" stop-color="#FFE87F"/>
            <stop offset="0.55" stop-color="#FFD744"/>
            <stop offset="0.56" stop-color="#FFD63F"/>
            <stop offset="0.95" stop-color="#A98207"/>
            <stop offset="1" stop-color="#9F7800"/>
        </linearGradient>
        <linearGradient id="paint4_linear" x1="59325.5" y1="34871.3" x2="59325.5" y2="66291.5" gradientUnits="userSpaceOnUse">
            <stop offset="0.01" stop-color="#A88006"/>
            <stop offset="0.46" stop-color="#FFE87F"/>
            <stop offset="0.55" stop-color="#FFD744"/>
            <stop offset="0.56" stop-color="#FFD63F"/>
            <stop offset="0.95" stop-color="#A98207"/>
            <stop offset="1" stop-color="#9F7800"/>
        </linearGradient>
    </defs>
</svg>
